<?xml version="1.0" encoding="iso-8859-1"?>
<!-- Generator: Adobe Illustrator 21.0.0, SVG Export Plug-In . SVG Version: 6.00 Build 0)  -->
<svg version="1.1" id="Capa_1" xmlns="http://www.w3.org/2000/svg" xmlns:xlink="http://www.w3.org/1999/xlink" x="0px" y="0px"
	 viewBox="0 0 512 512" style="enable-background:new 0 0 512 512;" xml:space="preserve">
<rect x="10" y="104.37" style="fill:#FBDF97;" width="492" height="303.27"/>
<path d="M502,417.635H10c-5.523,0-10-4.478-10-10v-303.27c0-5.522,4.477-10,10-10h492c5.522,0,10,4.478,10,10v303.27
	C512,413.157,507.522,417.635,502,417.635z M20,397.635h472v-283.27H20V397.635z"/>
<polyline style="fill:#404C6B;" points="66.445,244.665 66.445,371.819 122.892,350.158 179.339,371.819 179.339,244.665 "/>
<path style="fill:#FFCD50;" d="M122.892,273.778c-36.833,0-66.799-29.966-66.799-66.799s29.966-66.799,66.799-66.799
	s66.799,29.966,66.799,66.799S159.724,273.778,122.892,273.778z"/>
<path d="M199.69,206.979c0-42.347-34.452-76.798-76.798-76.798s-76.798,34.451-76.798,76.798c0,14.01,3.771,27.156,10.351,38.475
	v126.364c0,3.293,1.622,6.375,4.335,8.241c2.713,1.866,6.172,2.275,9.247,1.095l52.865-20.285l52.865,20.285
	c1.16,0.445,2.374,0.664,3.582,0.664c1.996,0,3.975-0.597,5.666-1.759c2.714-1.866,4.335-4.948,4.335-8.241V245.455
	C195.919,234.135,199.69,220.989,199.69,206.979z M122.892,150.182c31.319,0,56.798,25.479,56.798,56.798
	s-25.479,56.799-56.798,56.799S66.094,238.3,66.094,206.98C66.093,175.661,91.573,150.182,122.892,150.182z M126.474,340.822
	c-2.307-0.885-4.858-0.885-7.165,0L76.444,357.27v-89.167c12.907,9.832,29.007,15.675,46.447,15.675s33.541-5.844,46.447-15.675
	v89.167L126.474,340.822z"/>
<path style="fill:#FAD574;" d="M149.69,206.979c0,14.777-12.021,26.799-26.798,26.799s-26.799-12.021-26.799-26.799
	c0-14.776,12.022-26.798,26.799-26.798"/>
<path d="M122.892,243.778c-20.291,0-36.799-16.508-36.799-36.799c0-20.29,16.508-36.798,36.799-36.798c5.523,0,10,4.478,10,10
	s-4.477,10-10,10c-9.263,0-16.799,7.535-16.799,16.798s7.536,16.799,16.799,16.799s16.798-7.536,16.798-16.799
	c0-5.522,4.477-10,10-10s10,4.478,10,10C159.69,227.271,143.182,243.778,122.892,243.778z"/>
<rect x="232.91" y="153.22" style="fill:#5A6B96;" width="223" height="43.955"/>
<path d="M455.907,207.173H232.905c-5.523,0-10-4.478-10-10v-43.955c0-5.522,4.477-10,10-10h223.002c5.522,0,10,4.478,10,10v43.955
	C465.907,202.695,461.43,207.173,455.907,207.173z M242.905,187.173h203.002v-23.955H242.905V187.173z"/>
<path d="M455.907,253.779H232.905c-5.523,0-10-4.478-10-10s4.477-10,10-10h223.002c5.522,0,10,4.478,10,10
	S461.43,253.779,455.907,253.779z"/>
<path d="M454.78,303.78c-2.631,0-5.211-1.07-7.07-2.931c-0.46-0.46-0.88-0.97-1.24-1.52c-0.36-0.54-0.67-1.12-0.92-1.721
	c-0.25-0.609-0.45-1.239-0.57-1.88c-0.13-0.64-0.199-1.3-0.199-1.949c0-0.65,0.069-1.311,0.199-1.95
	c0.12-0.641,0.32-1.271,0.57-1.87c0.25-0.61,0.56-1.19,0.92-1.73c0.36-0.55,0.78-1.06,1.24-1.52c2.32-2.33,5.78-3.391,9.02-2.74
	c0.641,0.13,1.271,0.33,1.87,0.58c0.61,0.25,1.19,0.56,1.73,0.92c0.55,0.36,1.06,0.78,1.52,1.24c0.46,0.46,0.88,0.97,1.25,1.52
	c0.36,0.54,0.66,1.12,0.91,1.73c0.25,0.6,0.45,1.229,0.57,1.87c0.13,0.64,0.2,1.3,0.2,1.95c0,0.649-0.07,1.31-0.2,1.949
	c-0.12,0.641-0.32,1.271-0.57,1.88c-0.25,0.601-0.55,1.181-0.91,1.721c-0.37,0.55-0.79,1.06-1.25,1.52
	c-0.46,0.46-0.97,0.88-1.52,1.24c-0.54,0.36-1.12,0.67-1.73,0.92c-0.6,0.25-1.229,0.45-1.87,0.57
	C456.09,303.71,455.43,303.78,454.78,303.78z"/>
<path d="M417.781,303.78H232.905c-5.523,0-10-4.478-10-10c0-5.522,4.477-10,10-10h184.876c5.522,0,10,4.478,10,10
	C427.781,299.302,423.304,303.78,417.781,303.78z"/>
<path d="M387.406,352h-86c-5.522,0-10-4.478-10-10c0-5.522,4.478-10,10-10h86c5.522,0,10,4.478,10,10
	C397.406,347.522,392.929,352,387.406,352z"/>
<g>
</g>
<g>
</g>
<g>
</g>
<g>
</g>
<g>
</g>
<g>
</g>
<g>
</g>
<g>
</g>
<g>
</g>
<g>
</g>
<g>
</g>
<g>
</g>
<g>
</g>
<g>
</g>
<g>
</g>
</svg>
