<?xml version="1.0" encoding="iso-8859-1"?>
<!-- Generator: Adobe Illustrator 21.0.0, SVG Export Plug-In . SVG Version: 6.00 Build 0)  -->
<svg version="1.1" id="Capa_1" xmlns="http://www.w3.org/2000/svg" xmlns:xlink="http://www.w3.org/1999/xlink" x="0px" y="0px"
	 viewBox="0 0 512.001 512.001" style="enable-background:new 0 0 512.001 512.001;" xml:space="preserve">
<path style="fill:#FAD574;" d="M199.184,373.29c-19.879,8.649-33.812,28.463-33.812,51.467v8.703l181.252-0.001v-8.703
	c0-23.004-13.933-42.818-33.813-51.467"/>
<path style="fill:#FFCD50;" d="M327.56,277.355c14.908-15.328,24.937-34.52,27.461-57.233l17.717-161.834H256.101v-0.001H139.257
	l17.926,161.852c2.522,22.694,12.542,41.873,27.438,57.196"/>
<path style="fill:#8897BD;" d="M422.413,396.638c-108.549-35.151-224.265-35.151-332.814,0
	c-8.416-30.691-16.848-61.382-25.264-92.073c125.038-40.485,258.304-40.485,383.342,0
	C439.245,335.255,430.829,365.946,422.413,396.638z"/>
<path style="fill:#5A6B96;" d="M89.599,396.638c-3.503-12.776-7.009-25.551-10.516-38.326
	c-23.382,7.568-46.454,16.671-69.085,27.315c16.395,5.77,32.243,12.273,47.529,19.431c-7.573,16.11-14.365,32.344-20.408,48.657
	c33.898-15.938,68.905-27.993,104.474-36.196c-2.181-11.151-4.359-22.305-6.536-33.46
	C119.793,387.579,104.627,391.771,89.599,396.638z"/>
<path style="fill:#404C6B;" d="M501.998,385.627c-22.628-10.643-45.697-19.745-69.075-27.313
	c-3.504,12.774-7.007,25.549-10.51,38.323c-15.033-4.868-30.204-9.062-45.474-12.581c-2.178,11.156-4.356,22.311-6.537,33.463
	c35.569,8.203,70.576,20.258,104.474,36.196c-6.043-16.313-12.835-32.547-20.408-48.657
	C469.755,397.901,485.603,391.398,501.998,385.627z"/>
<path d="M506.254,376.578c-19.894-9.357-40.433-17.667-61.179-24.759c4.079-14.869,8.16-29.737,12.245-44.605
	c1.417-5.157-1.475-10.516-6.563-12.163c-34.427-11.147-69.386-19.281-104.59-24.404c5.938-8.352,10.537-17.293,13.773-26.778
	c16.744-2.726,32.409-10.751,44.435-22.831c12.88-12.938,21.08-30.02,23.09-48.104l6.687-60.384
	c0.313-2.826-0.593-5.652-2.489-7.771c-1.897-2.118-4.606-3.329-7.45-3.329h-46.139l4.606-42.074
	c0.31-2.824-0.598-5.647-2.494-7.763c-1.897-2.116-4.604-3.325-7.446-3.325l-233.48-0.002c-2.844,0-5.553,1.211-7.45,3.329
	c-1.896,2.119-2.802,4.945-2.489,7.771l4.659,42.063H87.784c-2.844,0-5.553,1.211-7.45,3.329c-1.896,2.119-2.802,4.945-2.489,7.771
	l6.688,60.388c2.009,18.08,10.209,35.161,23.089,48.1c12.078,12.132,27.825,20.173,44.65,22.865
	c3.231,9.461,7.821,18.382,13.745,26.718c-35.261,5.121-70.278,13.264-104.761,24.429c-5.086,1.646-7.978,7.003-6.563,12.158
	c4.076,14.868,8.157,29.738,12.239,44.607c-20.748,7.092-41.289,15.403-61.188,24.762c-3.672,1.727-5.937,5.502-5.731,9.555
	s2.84,7.58,6.667,8.927c12.681,4.463,25.278,9.472,37.57,14.933c-5.958,13.222-11.494,26.721-16.506,40.25
	c-1.411,3.808-0.379,8.091,2.611,10.838c1.885,1.731,4.312,2.636,6.768,2.636c1.441,0,2.894-0.312,4.253-0.95
	c32.884-15.462,67.358-27.406,102.467-35.502c5.255-1.212,8.603-6.372,7.566-11.664c-1.558-7.967-3.115-15.935-4.67-23.904
	c6.622-1.405,13.259-2.681,19.909-3.828c-7.202,10.689-11.273,23.462-11.273,36.889v8.703c0,2.652,1.054,5.195,2.929,7.071
	c1.876,1.875,4.419,2.929,7.071,2.929l181.252-0.001c5.522,0,10-4.478,10-10v-8.703c0-13.428-4.072-26.202-11.275-36.891
	c6.65,1.147,13.288,2.423,19.911,3.828c-1.556,7.97-3.113,15.939-4.672,23.907c-1.035,5.292,2.313,10.452,7.567,11.664
	c35.108,8.096,69.583,20.04,102.467,35.502c1.359,0.639,2.811,0.95,4.253,0.95c2.456,0,4.883-0.904,6.768-2.636
	c2.99-2.747,4.022-7.03,2.611-10.838c-5.009-13.522-10.546-27.022-16.507-40.25c12.292-5.461,24.891-10.47,37.571-14.933
	c3.827-1.348,6.462-4.874,6.667-8.927C512.191,382.08,509.926,378.305,506.254,376.578z M413.043,121.45l-5.456,49.279
	c-1.512,13.6-7.687,26.454-17.386,36.197c-7.086,7.119-15.846,12.367-25.357,15.299c0.041-0.338,0.08-0.677,0.118-1.016
	l10.921-99.76h37.16V121.45z M121.795,206.927c-9.699-9.743-15.874-22.598-17.385-36.193l-5.457-49.283h37.239l11.053,99.793
	c0.039,0.35,0.08,0.699,0.122,1.048C137.773,219.373,128.935,214.099,121.795,206.927z M167.123,219.038L150.427,68.286
	l211.157,0.002l-16.501,150.729c-2.032,18.286-9.489,34.647-22.178,48.686c-44.446-4.782-89.179-4.788-133.625-0.018
	C176.602,253.653,169.153,237.304,167.123,219.038z M435.483,311.204c-6.663,24.263-13.317,48.525-19.972,72.789
	c-104.58-31.73-214.43-31.731-319.01,0.001c-2.591-9.443-5.182-18.887-7.774-28.33c-0.004-0.014-0.008-0.028-0.012-0.042
	c-0.738-2.689-1.476-5.378-2.214-8.067c-3.326-12.116-6.651-24.234-9.976-36.351C194.154,275.092,317.854,275.089,435.483,311.204z
	 M127.244,396.228c0.898,4.603,1.798,9.206,2.697,13.809c-25.348,6.343-50.333,14.613-74.615,24.693
	c3.563-8.567,7.324-17.063,11.251-25.417c1.13-2.402,1.257-5.155,0.355-7.652c-0.902-2.496-2.76-4.532-5.164-5.658
	c-8.358-3.914-16.882-7.631-25.502-11.123c11.852-4.983,23.873-9.575,35.967-13.738c2.574,9.38,5.148,18.761,7.721,28.141
	c0.722,2.634,2.49,4.857,4.894,6.155s5.233,1.555,7.831,0.714c0.388-0.125,4.291-1.369,4.322-1.379
	C106.977,401.635,117.101,398.775,127.244,396.228z M336.606,423.459l-161.215,0.001c0.488-17.401,10.781-33.057,26.607-40.469
	c35.928-3.721,72.072-3.721,108-0.002C325.823,390.401,336.118,406.058,336.606,423.459z M450.228,396.002
	c-2.403,1.126-4.262,3.162-5.164,5.658c-0.901,2.497-0.774,5.25,0.355,7.652c3.928,8.356,7.688,16.853,11.25,25.417
	c-24.281-10.08-49.267-18.351-74.614-24.693c0.899-4.604,1.799-9.208,2.698-13.813c10.509,2.64,20.978,5.684,31.33,8.888
	c6.916,2.14,11.014,0.363,11.081,0.327c2.403-1.298,4.172-3.521,4.894-6.155l7.718-28.138c12.093,4.163,24.106,8.752,35.955,13.734
	C467.109,388.371,458.586,392.088,450.228,396.002z"/>
<path d="M384.468,337.601c-2.63,0-5.21-1.069-7.07-2.939c-1.859-1.851-2.93-4.431-2.93-7.061c0-0.66,0.061-1.31,0.19-1.96
	c0.13-0.64,0.319-1.27,0.569-1.87s0.561-1.18,0.92-1.729c0.37-0.55,0.79-1.061,1.25-1.521c1.86-1.859,4.44-2.93,7.07-2.93
	s5.21,1.07,7.07,2.93c0.46,0.46,0.88,0.971,1.24,1.521c0.359,0.55,0.67,1.13,0.92,1.729c0.25,0.601,0.439,1.23,0.569,1.87
	c0.13,0.65,0.2,1.3,0.2,1.96c0,2.63-1.07,5.2-2.93,7.061c-0.46,0.47-0.971,0.88-1.521,1.25c-0.54,0.359-1.12,0.67-1.729,0.92
	c-0.601,0.25-1.23,0.439-1.87,0.569C385.778,337.531,385.118,337.601,384.468,337.601z"/>
<path d="M125.234,338.119c-4.552,0-8.666-3.127-9.734-7.751c-1.243-5.381,2.111-10.751,7.492-11.994
	c43.621-10.077,88.373-15.187,133.014-15.187c32.189,0,64.632,2.671,96.426,7.938c5.449,0.902,9.135,6.051,8.231,11.499
	c-0.902,5.448-6.057,9.13-11.499,8.231c-30.718-5.088-62.061-7.668-93.158-7.668c-43.128,0-86.365,4.937-128.512,14.673
	C126.737,338.035,125.98,338.119,125.234,338.119z"/>
<polygon style="fill:#FBDF97;" points="255.998,111.96 276.808,145.892 315.549,155.174 289.669,185.426 292.803,225.094 
	255.998,209.86 219.194,225.094 222.327,185.426 196.447,155.174 235.188,145.892 "/>
<path d="M292.802,235.095c-1.293,0-2.592-0.25-3.824-0.761l-32.98-13.651l-32.979,13.651c-3.217,1.331-6.89,0.896-9.705-1.15
	c-2.814-2.046-4.363-5.408-4.089-8.876l2.807-35.533l-23.183-27.1c-2.264-2.646-2.987-6.278-1.912-9.59
	c1.075-3.311,3.795-5.824,7.181-6.636l34.713-8.317l18.644-30.399c1.818-2.965,5.046-4.772,8.524-4.772s6.706,1.808,8.524,4.772
	l18.644,30.399l34.713,8.317c3.386,0.812,6.105,3.325,7.181,6.636c1.075,3.312,0.352,6.944-1.912,9.59l-23.183,27.1l2.807,35.533
	c0.274,3.468-1.274,6.83-4.089,8.876C296.946,234.445,294.883,235.095,292.802,235.095z M255.998,199.86
	c1.3,0,2.601,0.254,3.825,0.761l21.726,8.993l-1.849-23.4c-0.209-2.647,0.644-5.27,2.37-7.288l15.257-17.834l-22.85-5.475
	c-2.579-0.618-4.808-2.235-6.194-4.497l-12.285-20.032l-12.285,20.031c-1.387,2.262-3.615,3.879-6.194,4.497l-22.85,5.475
	l15.257,17.834c1.727,2.019,2.579,4.641,2.37,7.288l-1.849,23.4l21.726-8.993C253.398,200.113,254.698,199.86,255.998,199.86z"/>
<g>
</g>
<g>
</g>
<g>
</g>
<g>
</g>
<g>
</g>
<g>
</g>
<g>
</g>
<g>
</g>
<g>
</g>
<g>
</g>
<g>
</g>
<g>
</g>
<g>
</g>
<g>
</g>
<g>
</g>
</svg>
