<?xml version="1.0" encoding="iso-8859-1"?>
<!-- Generator: Adobe Illustrator 21.0.0, SVG Export Plug-In . SVG Version: 6.00 Build 0)  -->
<svg version="1.1" id="Capa_1" xmlns="http://www.w3.org/2000/svg" xmlns:xlink="http://www.w3.org/1999/xlink" x="0px" y="0px"
	 viewBox="0 0 512 512" style="enable-background:new 0 0 512 512;" xml:space="preserve">
<polyline style="fill:#5A6B96;" points="392.503,438.963 392.503,374.33 119.497,374.33 119.497,438.963 "/>
<polyline style="fill:#404C6B;" points="277,438.963 89.86,438.963 89.86,502 422.14,502 422.14,438.963 359.668,438.963 "/>
<path d="M318.33,448.96c-0.65,0-1.311-0.06-1.95-0.19c-0.64-0.13-1.271-0.32-1.87-0.57c-0.61-0.25-1.19-0.56-1.729-0.92
	c-0.551-0.37-1.061-0.79-1.521-1.25s-0.88-0.97-1.24-1.52c-0.359-0.54-0.67-1.12-0.92-1.72c-0.25-0.61-0.439-1.24-0.569-1.87
	c-0.131-0.65-0.2-1.31-0.2-1.96s0.069-1.31,0.2-1.95c0.13-0.64,0.319-1.27,0.569-1.87c0.25-0.61,0.561-1.19,0.92-1.73
	c0.36-0.55,0.78-1.06,1.24-1.52s0.97-0.88,1.521-1.24c0.539-0.36,1.119-0.67,1.729-0.92c0.6-0.25,1.23-0.44,1.87-0.57
	c1.29-0.26,2.62-0.26,3.91,0c0.64,0.13,1.26,0.32,1.87,0.57c0.6,0.25,1.18,0.56,1.72,0.92c0.55,0.36,1.06,0.78,1.52,1.24
	c1.87,1.86,2.94,4.44,2.94,7.07s-1.07,5.21-2.94,7.07c-0.46,0.46-0.97,0.88-1.52,1.25c-0.54,0.36-1.12,0.67-1.72,0.92
	c-0.61,0.25-1.23,0.44-1.87,0.57C319.64,448.9,318.99,448.96,318.33,448.96z"/>
<circle style="fill:#FFCD50;" cx="256" cy="192.16" r="182.16"/>
<path d="M422.14,428.963h-19.637V374.33c0-5.523-4.478-10-10-10h-51.181c63.269-31.482,106.843-96.831,106.843-172.165
	C448.165,86.205,361.96,0,256,0S63.835,86.205,63.835,192.165c0,75.334,43.575,140.683,106.843,172.165h-51.181
	c-5.522,0-10,4.477-10,10v54.633H89.86c-5.522,0-10,4.477-10,10V502c0,5.523,4.478,10,10,10h332.28c5.522,0,10-4.477,10-10v-63.037
	C432.14,433.44,427.662,428.963,422.14,428.963z M83.835,192.165C83.835,97.233,161.067,20,256,20s172.165,77.233,172.165,172.165
	S350.933,364.33,256,364.33S83.835,287.097,83.835,192.165z M412.14,492H99.86v-43.037H277c5.522,0,10-4.477,10-10s-4.478-10-10-10
	H129.497V384.33h253.006v44.633h-22.835c-5.522,0-10,4.477-10,10s4.478,10,10,10h52.472V492z"/>
<path style="fill:#FAD574;" d="M256,328.806c-75.344,0-136.641-61.297-136.641-136.641S180.656,55.524,256,55.524
	s136.641,61.297,136.641,136.641S331.344,328.806,256,328.806z"/>
<path d="M256,338.806c-80.858,0-146.641-65.783-146.641-146.641S175.142,45.524,256,45.524s146.641,65.783,146.641,146.641
	S336.858,338.806,256,338.806z M256,65.524c-69.83,0-126.641,56.811-126.641,126.641S186.17,318.806,256,318.806
	s126.641-56.811,126.641-126.641S325.83,65.524,256,65.524z"/>
<path style="fill:#FBDF97;" d="M222.494,262.366c-6.257,0-11.329-5.072-11.329-11.329V192.96v-7.032l4.115-0.475l0.096-0.026
	c0.089-0.023,7.328-2.522,16.344-9.151c11.096-8.16,16.723-18.587,16.723-30.993v-19.627c0-3.093,2.376-5.667,5.46-5.917l0,0
	c1.366-0.17,2.721-0.256,4.028-0.256c4.971,0,9.123,1.21,12.34,3.594c5.202,3.861,7.838,10.817,7.838,20.675v29.039h43.951
	c6.136,0,11.159,4.882,11.334,11.016c0,0-13.581,70.392-17.786,73.714c-4.072,3.216-9.65,4.847-16.58,4.847h-76.534V262.366z"/>
<rect x="178.6" y="183.53" style="fill:#404C6B;" width="32.562" height="81.32"/>
<path d="M343.392,183.523c-0.329-11.626-9.698-20.733-21.329-20.733H288.11v-19.039c0-13.198-3.996-22.855-11.883-28.708
	c-4.978-3.69-11.133-5.561-18.295-5.561c-1.659,0-3.369,0.104-5.087,0.311c-8.096,0.787-14.401,7.706-14.401,15.862v19.626
	c0,9.176-4.137,16.679-12.646,22.938c-4.143,3.046-7.826,5.072-10.319,6.285c-1.306-0.625-2.769-0.976-4.313-0.976h-32.562
	c-5.522,0-10,4.477-10,10v81.318c0,5.523,4.478,10,10,10h32.562c2.752,0,5.245-1.112,7.053-2.912c1.381,0.282,2.811,0.43,4.275,0.43
	h76.536c9.234,0,16.897-2.355,22.778-6.999c3.158-2.494,5.439-4.296,14.043-43.823c3.9-17.922,7.329-35.667,7.363-35.843
	C343.353,184.983,343.412,184.253,343.392,183.523z M201.166,254.848h-12.562V193.53h12.562V254.848z M307.998,250.586
	c-2.735,1.447-6.28,1.78-8.968,1.78h-76.536c-0.732,0-1.328-0.596-1.328-1.328v-57.151c3.652-1.552,9.747-4.604,16.479-9.555
	c13.606-10.006,20.799-23.509,20.799-39.05v-15.793c2.532,0.064,4.507,0.608,5.868,1.618c3.305,2.452,3.798,8.975,3.798,12.645
	v29.039c0,5.523,4.478,10,10,10h43.952c0.528,0,0.982,0.3,1.2,0.743C317.942,210.939,310.977,242.504,307.998,250.586z"/>
<g>
</g>
<g>
</g>
<g>
</g>
<g>
</g>
<g>
</g>
<g>
</g>
<g>
</g>
<g>
</g>
<g>
</g>
<g>
</g>
<g>
</g>
<g>
</g>
<g>
</g>
<g>
</g>
<g>
</g>
</svg>
