<?xml version="1.0" encoding="iso-8859-1"?>
<!-- Generator: Adobe Illustrator 21.0.0, SVG Export Plug-In . SVG Version: 6.00 Build 0)  -->
<svg version="1.1" id="Capa_1" xmlns="http://www.w3.org/2000/svg" xmlns:xlink="http://www.w3.org/1999/xlink" x="0px" y="0px"
	 viewBox="0 0 511.999 511.999" style="enable-background:new 0 0 511.999 511.999;" xml:space="preserve">
<polyline style="fill:#404C6B;" points="131.641,307.484 131.641,502 169.998,481.566 208.354,502 208.354,351.336 "/>
<polyline style="fill:#8897BD;" points="208.354,351.336 208.354,502 256,481.566 303.645,502 303.645,351.336 "/>
<polyline style="fill:#5A6B96;" points="303.645,351.336 303.645,502 342.002,481.566 380.358,502 380.358,307.484 "/>
<polygon style="fill:#FFCD50;" points="256,376.718 205.228,349.67 148.258,341.648 123.088,289.899 81.599,250.022 91.665,193.359 
	81.599,136.696 123.088,96.819 148.258,45.07 205.227,37.048 256,10 306.772,37.047 363.742,45.07 388.911,96.819 430.4,136.696 
	420.335,193.359 430.401,250.022 388.911,289.899 363.742,341.648 306.772,349.67 "/>
<path d="M440.247,248.273l-9.756-54.914l9.755-54.914c0.584-3.286-0.51-6.646-2.916-8.959l-40.204-38.643l-24.392-50.146
	c-1.455-2.992-4.303-5.064-7.598-5.528l-55.221-7.777L260.702,1.173c-2.939-1.564-6.465-1.564-9.404,0l-49.213,26.218l-55.222,7.776
	c-3.295,0.464-6.143,2.536-7.599,5.528l-24.39,50.147l-40.206,38.643c-2.406,2.313-3.5,5.673-2.916,8.959l9.756,54.914
	l-9.755,54.914c-0.584,3.286,0.51,6.646,2.916,8.959l40.204,38.643l6.768,13.914V502c0,3.512,1.842,6.767,4.854,8.574
	c3.011,1.806,6.748,1.9,9.849,0.252l33.654-17.93l33.654,17.93c1.342,0.714,2.802,1.101,4.271,1.165c0.002,0,0.004,0,0.006,0
	c0.047,0.002,0.094,0.004,0.141,0.005c0.016,0,0.032,0.001,0.048,0.001c0.033,0,0.066,0.001,0.099,0.002c0.022,0,0.045,0,0.067,0
	c0.023,0,0.046,0,0.069,0c0.005,0,0.01,0,0.015,0c0.035,0,0.071,0,0.106-0.001c0.017,0,0.035,0,0.052,0
	c0.107-0.002,0.215-0.006,0.322-0.011c0.013-0.001,0.026-0.001,0.04-0.002c0.042-0.002,0.085-0.005,0.127-0.007
	c0.01-0.001,0.02-0.001,0.03-0.002c0.044-0.003,0.088-0.006,0.132-0.01c0.015-0.001,0.03-0.002,0.044-0.004
	c0.037-0.003,0.075-0.006,0.112-0.01c0.02-0.002,0.039-0.004,0.059-0.006c0.035-0.004,0.07-0.008,0.105-0.012
	c0.018-0.002,0.036-0.004,0.055-0.006c0.035-0.004,0.071-0.009,0.106-0.013c0.018-0.002,0.037-0.005,0.055-0.008
	c0.036-0.005,0.072-0.01,0.107-0.015c0.019-0.003,0.037-0.005,0.056-0.008c0.037-0.006,0.074-0.012,0.11-0.018
	c0.015-0.003,0.031-0.005,0.046-0.008c0.041-0.007,0.081-0.014,0.121-0.021c0.014-0.002,0.027-0.005,0.041-0.007
	c0.041-0.008,0.081-0.016,0.121-0.024c0.013-0.003,0.027-0.005,0.04-0.008c0.049-0.01,0.098-0.021,0.147-0.031
	c0.004-0.001,0.008-0.002,0.012-0.002c0.053-0.012,0.105-0.024,0.158-0.036c0.021-0.005,0.041-0.01,0.062-0.015
	c0.031-0.008,0.062-0.015,0.093-0.023c0.026-0.007,0.053-0.014,0.079-0.021s0.052-0.013,0.077-0.021
	c0.027-0.007,0.054-0.015,0.08-0.022c0.025-0.007,0.05-0.014,0.074-0.021c0.03-0.009,0.059-0.017,0.089-0.026
	c0.02-0.006,0.041-0.012,0.061-0.018c0.032-0.01,0.065-0.02,0.097-0.03c0.018-0.006,0.035-0.011,0.053-0.017
	c0.036-0.011,0.071-0.023,0.107-0.035c0.013-0.004,0.025-0.009,0.038-0.013c0.039-0.013,0.078-0.027,0.117-0.041
	c0.01-0.003,0.02-0.007,0.029-0.01c0.041-0.015,0.082-0.03,0.123-0.045c0.007-0.002,0.014-0.005,0.021-0.008
	c0.043-0.016,0.086-0.032,0.129-0.049c0.005-0.002,0.009-0.003,0.014-0.005c0.1-0.039,0.199-0.08,0.297-0.123L256,492.447
	l43.704,18.743c0.015,0.007,0.031,0.013,0.046,0.019c0.045,0.019,0.09,0.038,0.135,0.056c0.034,0.014,0.069,0.028,0.103,0.042
	c0.048,0.019,0.096,0.037,0.145,0.055c0.034,0.013,0.068,0.025,0.101,0.037c0.032,0.011,0.064,0.023,0.096,0.034
	c0.066,0.023,0.131,0.045,0.197,0.067c0.019,0.006,0.037,0.012,0.056,0.018c0.146,0.047,0.294,0.091,0.442,0.131l0.003,0.001
	c0.859,0.233,1.738,0.349,2.616,0.349c1.238,0,2.472-0.23,3.635-0.684c0.014-0.006,0.028-0.011,0.042-0.016
	c0.034-0.013,0.068-0.027,0.101-0.041c0.021-0.008,0.041-0.017,0.062-0.025c0.029-0.012,0.057-0.024,0.086-0.036
	s0.057-0.024,0.086-0.037c0.021-0.01,0.043-0.019,0.065-0.029c0.042-0.019,0.083-0.038,0.125-0.057
	c0.007-0.003,0.014-0.006,0.021-0.01c0.162-0.075,0.323-0.155,0.481-0.239l33.654-17.93l33.654,17.93
	c1.473,0.784,3.088,1.174,4.702,1.174c1.784,0,3.566-0.478,5.146-1.426c3.012-1.808,4.854-5.063,4.854-8.574V309.787l6.767-13.913
	l40.206-38.643C439.737,254.919,440.831,251.559,440.247,248.273z M165.296,472.74l-23.654,12.602V349.146
	c1.447,1.277,3.255,2.127,5.222,2.404l51.491,7.251v126.54L174.7,472.74C171.76,471.175,168.235,471.175,165.296,472.74z
	 M252.058,472.375l-33.704,14.454V367.994l32.943,17.55c1.47,0.782,3.086,1.174,4.702,1.174s3.232-0.392,4.702-1.174l32.943-17.55
	V486.83l-33.704-14.454C257.424,471.295,254.576,471.295,252.058,472.375z M346.704,472.74c-2.939-1.564-6.465-1.564-9.404,0
	l-23.654,12.602v-126.54l51.491-7.251c1.967-0.277,3.774-1.127,5.222-2.404v136.195L346.704,472.74z M381.981,282.689
	c-0.85,0.816-1.548,1.776-2.063,2.836l-8.482,17.439c-0.048,0.094-0.094,0.189-0.139,0.285l-14.22,29.239l-51.699,7.28
	c-1.157,0.163-2.276,0.527-3.308,1.076l-3.008,1.603c-0.073,0.038-0.145,0.076-0.217,0.116L256,365.388l-42.807-22.805
	c-0.102-0.057-0.205-0.112-0.309-0.165l-2.954-1.574c-1.031-0.549-2.15-0.913-3.308-1.076l-51.699-7.28l0,0
	c-0.055-0.119-22.782-46.846-22.842-46.963l0,0c-0.516-1.06-1.214-2.02-2.063-2.836L92.38,246.513l9.131-51.405
	c0.206-1.157,0.206-2.341,0-3.498l-9.132-51.405l37.64-36.176c0.85-0.816,1.548-1.776,2.063-2.836l22.841-46.963l51.699-7.28
	c1.157-0.163,2.276-0.527,3.308-1.076L256,21.33l46.07,24.544c1.031,0.549,2.15,0.913,3.308,1.076l51.699,7.281l22.842,46.962
	c0.516,1.06,1.214,2.02,2.063,2.836l37.638,36.176l-9.131,51.405c-0.206,1.157-0.206,2.341,0,3.498l9.132,51.405L381.981,282.689z"
	/>
<circle style="fill:#FBDF97;" cx="256" cy="193.36" r="127.67"/>
<path d="M256,331.028c-75.911,0-137.669-61.758-137.669-137.669S180.089,55.69,256,55.69s137.669,61.758,137.669,137.669
	S331.911,331.028,256,331.028z M256,75.69c-64.883,0-117.669,52.786-117.669,117.669S191.117,311.028,256,311.028
	s117.669-52.786,117.669-117.669S320.883,75.69,256,75.69z"/>
<path d="M298.103,127.977h-84.207c-5.522,0-10-4.478-10-10s4.478-10,10-10h84.207c5.522,0,10,4.478,10,10
	S303.626,127.977,298.103,127.977z"/>
<path d="M298.103,275.955h-84.207c-5.522,0-10-4.478-10-10s4.478-10,10-10h84.207c5.522,0,10,4.478,10,10
	S303.626,275.955,298.103,275.955z"/>
<path d="M333.04,177.549c-2.63,0-5.21-1.06-7.07-2.93c-1.86-1.86-2.93-4.431-2.93-7.07c0-0.65,0.069-1.3,0.2-1.95
	c0.13-0.64,0.319-1.27,0.569-1.87c0.25-0.609,0.561-1.189,0.92-1.729c0.36-0.55,0.78-1.061,1.24-1.521
	c2.33-2.319,5.78-3.38,9.03-2.729c0.63,0.13,1.26,0.319,1.87,0.569c0.6,0.25,1.18,0.561,1.72,0.921
	c0.55,0.359,1.06,0.779,1.52,1.239s0.881,0.971,1.25,1.521c0.36,0.54,0.671,1.12,0.921,1.729c0.25,0.601,0.439,1.23,0.569,1.87
	c0.13,0.65,0.19,1.3,0.19,1.95c0,2.63-1.061,5.21-2.931,7.07c-0.46,0.46-0.97,0.88-1.52,1.25c-0.54,0.359-1.12,0.67-1.72,0.92
	c-0.61,0.25-1.24,0.439-1.87,0.569C334.349,177.49,333.689,177.549,333.04,177.549z"/>
<path d="M296.042,177.552H178.958c-5.522,0-10-4.478-10-10s4.478-10,10-10h117.084c5.522,0,10,4.478,10,10
	S301.564,177.552,296.042,177.552z"/>
<path d="M178.96,229.169c-2.641,0-5.21-1.07-7.07-2.93c-0.46-0.461-0.88-0.971-1.25-1.521c-0.359-0.54-0.67-1.13-0.92-1.729
	c-0.25-0.601-0.439-1.23-0.57-1.87c-0.13-0.641-0.189-1.301-0.189-1.95c0-0.66,0.06-1.311,0.189-1.96
	c0.131-0.641,0.32-1.271,0.57-1.87s0.561-1.18,0.92-1.73c0.37-0.54,0.79-1.06,1.25-1.52c2.32-2.32,5.771-3.39,9.021-2.73
	c0.64,0.131,1.27,0.32,1.87,0.57c0.609,0.25,1.189,0.561,1.729,0.92c0.55,0.36,1.06,0.78,1.521,1.24
	c0.46,0.46,0.88,0.979,1.239,1.52c0.36,0.551,0.67,1.131,0.92,1.73s0.44,1.229,0.57,1.87c0.13,0.649,0.2,1.3,0.2,1.96
	c0,2.63-1.07,5.2-2.93,7.07c-0.461,0.46-0.971,0.88-1.521,1.239c-0.54,0.36-1.12,0.67-1.729,0.92c-0.601,0.25-1.23,0.44-1.87,0.57
	C180.269,229.099,179.609,229.169,178.96,229.169z"/>
<path d="M333.042,229.166H215.958c-5.522,0-10-4.478-10-10s4.478-10,10-10h117.084c5.522,0,10,4.478,10,10
	S338.564,229.166,333.042,229.166z"/>
<g>
</g>
<g>
</g>
<g>
</g>
<g>
</g>
<g>
</g>
<g>
</g>
<g>
</g>
<g>
</g>
<g>
</g>
<g>
</g>
<g>
</g>
<g>
</g>
<g>
</g>
<g>
</g>
<g>
</g>
</svg>
