<?xml version="1.0" encoding="iso-8859-1"?>
<!-- Generator: Adobe Illustrator 21.0.0, SVG Export Plug-In . SVG Version: 6.00 Build 0)  -->
<svg version="1.1" id="Capa_1" xmlns="http://www.w3.org/2000/svg" xmlns:xlink="http://www.w3.org/1999/xlink" x="0px" y="0px"
	 viewBox="0 0 512 512" style="enable-background:new 0 0 512 512;" xml:space="preserve">
<polyline style="fill:#5A6B96;" points="367.5,438.963 367.5,376.909 144.5,376.909 144.5,438.963 "/>
<polyline style="fill:#404C6B;" points="251.998,438.963 114.863,438.963 114.863,502 397.137,502 397.137,438.963 334.666,438.963 
	"/>
<path d="M293.33,448.96c-0.65,0-1.311-0.06-1.95-0.19c-0.64-0.13-1.271-0.32-1.87-0.57c-0.61-0.25-1.19-0.56-1.729-0.92
	c-0.551-0.37-1.061-0.79-1.521-1.25s-0.88-0.97-1.24-1.52c-0.359-0.54-0.67-1.12-0.92-1.72c-0.25-0.61-0.45-1.23-0.569-1.87
	c-0.131-0.65-0.2-1.3-0.2-1.96c0-0.65,0.069-1.31,0.2-1.95c0.119-0.64,0.319-1.27,0.569-1.87c0.25-0.61,0.561-1.19,0.92-1.73
	c0.36-0.55,0.78-1.06,1.24-1.52s0.97-0.88,1.521-1.24c0.539-0.36,1.119-0.67,1.729-0.92c0.6-0.25,1.23-0.44,1.87-0.57
	c1.29-0.26,2.62-0.26,3.9,0c0.64,0.13,1.27,0.32,1.88,0.57c0.6,0.25,1.18,0.56,1.72,0.92c0.55,0.36,1.06,0.78,1.52,1.24
	s0.881,0.97,1.25,1.52c0.36,0.54,0.66,1.12,0.91,1.73c0.25,0.6,0.45,1.23,0.57,1.87c0.13,0.64,0.2,1.3,0.2,1.95
	c0,0.66-0.07,1.31-0.2,1.96c-0.12,0.64-0.32,1.26-0.57,1.87c-0.25,0.6-0.55,1.18-0.91,1.72c-0.369,0.55-0.79,1.06-1.25,1.52
	s-0.97,0.88-1.52,1.25c-0.54,0.36-1.12,0.67-1.72,0.92c-0.61,0.25-1.24,0.44-1.88,0.57C294.64,448.9,293.98,448.96,293.33,448.96z"
	/>
<polygon style="fill:#FBDF97;" points="204.308,332.329 207.148,376.909 304.853,376.909 307.692,332.329 "/>
<path style="fill:#FFCD50;" d="M219.048,121h-6.071c-13.368,0-23.959,11.287-23.109,24.628l14.44,186.701H256V132"/>
<path style="fill:#FAD574;" d="M256,132v200.329h51.692l14.44-186.701c0.85-13.341-9.741-24.628-23.109-24.628h-6.071"/>
<circle style="fill:#FBDF97;" cx="256" cy="71" r="61"/>
<path d="M397.137,428.963H377.5v-52.054c0-5.523-4.478-10-10-10h-51.99l2.159-33.893l14.434-186.617
	c0.003-0.045,0.006-0.09,0.009-0.135c0.58-9.105-2.668-18.143-8.91-24.795c-3.033-3.232-6.672-5.794-10.658-7.574
	C321.612,101.97,327,87.102,327,71c0-39.149-31.851-71-71-71s-71,31.851-71,71c0,16.102,5.388,30.97,14.456,42.894
	c-3.986,1.781-7.625,4.342-10.658,7.574c-6.243,6.653-9.49,15.69-8.911,24.795c0.003,0.045,0.006,0.09,0.01,0.135l14.433,186.617
	l2.159,33.893H144.5c-5.523,0-10,4.477-10,10v52.054h-19.637c-5.523,0-10,4.477-10,10V502c0,5.523,4.477,10,10,10h282.274
	c5.522,0,10-4.477,10-10v-63.037C407.137,433.44,402.659,428.963,397.137,428.963z M213.565,322.329l-13.72-177.396
	c-0.216-3.645,1.04-7.116,3.54-9.78c2.513-2.679,5.92-4.154,9.593-4.154h5.098c8.305,5.268,17.773,8.861,27.925,10.298v181.031
	h-32.436V322.329z M266,141.298c10.152-1.437,19.62-5.03,27.925-10.298h5.097c3.673,0,7.08,1.475,9.594,4.154
	c2.501,2.665,3.757,6.137,3.539,9.783l-13.72,177.393H266V141.298z M256,20c28.121,0,51,22.878,51,51s-22.879,51-51,51
	c-28.122,0-51-22.878-51-51S227.879,20,256,20z M214.966,342.329h82.07l-1.565,24.58h-78.939L214.966,342.329z M387.137,492H124.863
	v-43.037h127.135c5.523,0,10-4.477,10-10s-4.477-10-10-10H154.5v-42.054h203v42.054h-22.834c-5.522,0-10,4.477-10,10s4.478,10,10,10
	h52.471L387.137,492L387.137,492z"/>
<g>
</g>
<g>
</g>
<g>
</g>
<g>
</g>
<g>
</g>
<g>
</g>
<g>
</g>
<g>
</g>
<g>
</g>
<g>
</g>
<g>
</g>
<g>
</g>
<g>
</g>
<g>
</g>
<g>
</g>
</svg>
