<?xml version="1.0" encoding="iso-8859-1"?>
<!-- Generator: Adobe Illustrator 21.0.0, SVG Export Plug-In . SVG Version: 6.00 Build 0)  -->
<svg version="1.1" id="Capa_1" xmlns="http://www.w3.org/2000/svg" xmlns:xlink="http://www.w3.org/1999/xlink" x="0px" y="0px"
	 viewBox="0 0 512 512" style="enable-background:new 0 0 512 512;" xml:space="preserve">
<polyline style="fill:#8897BD;" points="117.101,209.143 36.245,209.143 10,279.992 136.858,279.992 "/>
<g>
	<polyline style="fill:#404C6B;" points="136.858,138.293 10,138.293 36.245,209.143 117.101,209.143 	"/>
	<polyline style="fill:#404C6B;" points="373.524,279.992 502,279.992 475.755,209.143 393.281,209.143 	"/>
</g>
<polyline style="fill:#8897BD;" points="393.281,209.143 475.755,209.143 502,138.293 373.524,138.293 "/>
<rect x="10" y="346.26" style="fill:#FAD574;" width="492" height="93.72"/>
<path d="M415.68,403.109c-0.649,0-1.31-0.06-1.95-0.189c-0.64-0.13-1.27-0.32-1.87-0.57c-0.609-0.25-1.189-0.56-1.729-0.92
	c-0.55-0.37-1.061-0.78-1.521-1.25c-0.46-0.46-0.88-0.97-1.239-1.52c-0.36-0.54-0.67-1.12-0.92-1.721
	c-0.25-0.609-0.44-1.229-0.57-1.87c-0.13-0.649-0.2-1.3-0.2-1.96c0-0.649,0.07-1.3,0.2-1.949c0.13-0.641,0.32-1.271,0.57-1.87
	c0.25-0.601,0.56-1.181,0.92-1.73c0.359-0.54,0.779-1.06,1.239-1.52s0.971-0.88,1.521-1.24c0.54-0.36,1.12-0.67,1.729-0.92
	c0.601-0.25,1.23-0.44,1.87-0.57c1.29-0.26,2.62-0.26,3.91,0c0.63,0.13,1.26,0.32,1.87,0.57c0.6,0.25,1.18,0.56,1.72,0.92
	c0.551,0.36,1.061,0.78,1.521,1.24s0.88,0.979,1.25,1.52c0.359,0.55,0.67,1.13,0.92,1.73s0.439,1.229,0.57,1.87
	c0.13,0.649,0.189,1.3,0.189,1.949c0,0.66-0.06,1.311-0.189,1.96c-0.131,0.641-0.33,1.261-0.58,1.87
	c-0.25,0.601-0.561,1.181-0.92,1.721c-0.36,0.55-0.78,1.06-1.24,1.52c-0.46,0.47-0.97,0.88-1.521,1.25
	c-0.54,0.36-1.12,0.67-1.72,0.92c-0.61,0.25-1.24,0.44-1.87,0.57C416.99,403.049,416.33,403.109,415.68,403.109z"/>
<path style="fill:#FFCD50;" d="M255.191,346.257c-75.592,0-137.09-61.509-137.09-137.115s61.498-137.115,137.09-137.115
	s137.09,61.509,137.09,137.115S330.783,346.257,255.191,346.257z"/>
<path style="fill:#FBDF97;" d="M221.575,279.587c-6.277,0-11.366-5.09-11.366-11.368V209.94v-7.057l4.129-0.476l0.097-0.026
	c0.089-0.023,7.352-2.53,16.398-9.183c11.133-8.188,16.778-18.652,16.778-31.101v-19.695c0-3.104,2.384-5.687,5.478-5.938l0,0
	c1.37-0.17,2.73-0.257,4.041-0.257c4.988,0,9.153,1.214,12.38,3.607c5.219,3.874,7.864,10.854,7.864,20.747v29.139h44.096
	c6.157,0,11.196,4.899,11.371,11.054c0,0-13.625,70.636-17.844,73.969c-4.085,3.227-9.682,4.864-16.634,4.864H221.575z"/>
<rect x="177.54" y="200.479" style="fill:#404C6B;" width="32.669" height="81.6"/>
<path d="M502,336.257H329.177c19.618-11.466,36.358-27.345,48.848-46.265H502c3.272,0,6.338-1.602,8.208-4.287
	c1.869-2.687,2.306-6.117,1.169-9.187l-24.958-67.376l24.958-67.376c1.137-3.069,0.7-6.5-1.169-9.187
	c-1.87-2.686-4.936-4.287-8.208-4.287H378.025C351.688,88.4,306.461,62.028,255.191,62.028S158.694,88.4,132.357,128.293H10
	c-3.273,0-6.338,1.602-8.208,4.287c-1.869,2.687-2.306,6.117-1.169,9.187l24.958,67.376L0.623,276.519
	c-1.137,3.069-0.7,6.5,1.169,9.187c1.87,2.686,4.935,4.287,8.208,4.287h122.357c12.491,18.92,29.23,34.798,48.848,46.265H10
	c-5.523,0-10,4.478-10,10v93.715c0,5.522,4.477,10,10,10h492c5.522,0,10-4.478,10-10v-93.715
	C512,340.734,507.523,336.257,502,336.257z M389.102,269.992c7.151-15.679,11.627-32.824,12.842-50.85h66.85l18.837,50.85H389.102z
	 M487.632,148.293l-18.837,50.85h-66.85c-1.215-18.025-5.692-35.17-12.842-50.85H487.632z M121.28,148.293
	c-7.151,15.679-11.627,32.824-12.842,50.85H43.205l-18.837-50.85H121.28z M24.368,269.992l18.837-50.85h65.233
	c1.216,18.025,5.692,35.17,12.842,50.85H24.368z M128.101,209.143c0-70.091,57.012-127.114,127.09-127.114
	s127.09,57.023,127.09,127.114s-57.013,127.114-127.09,127.114S128.101,279.233,128.101,209.143z M492,429.971H20v-26.857h358.56
	c5.522,0,10-4.478,10-10s-4.478-10-10-10H20v-26.857h472V429.971z"/>
<path d="M321.471,179.699h-34.096v-19.14c0-13.23-4.005-22.912-11.909-28.779c-4.988-3.698-11.157-5.573-18.335-5.573
	c-1.671,0-3.388,0.105-5.106,0.313c-8.104,0.789-14.414,7.716-14.414,15.882v19.695c0,9.22-4.155,16.758-12.703,23.045
	c-4.165,3.063-7.868,5.099-10.371,6.317c-1.31-0.63-2.777-0.983-4.328-0.983H177.54c-5.523,0-10,4.478-10,10v81.601
	c0,5.522,4.477,10,10,10h32.669c2.759,0,5.257-1.118,7.067-2.925c1.389,0.285,2.827,0.435,4.299,0.435h76.788
	c9.258,0,16.94-2.36,22.833-7.017c3.162-2.498,5.447-4.304,14.076-43.954c3.914-17.983,7.354-35.789,7.389-35.967
	c0.138-0.719,0.197-1.449,0.177-2.18C342.505,188.823,333.119,179.699,321.471,179.699z M200.21,272.077h-12.669v-61.601h12.669
	V272.077z M307.386,267.79c-2.751,1.459-6.319,1.796-9.022,1.796h-76.788c-0.753,0-1.366-0.613-1.366-1.367v-57.373
	c3.657-1.556,9.795-4.626,16.549-9.593c13.642-10.034,20.853-23.574,20.853-39.156v-15.884c2.563,0.06,4.562,0.608,5.938,1.63
	c3.328,2.471,3.825,9.028,3.825,12.717v29.14c0,5.522,4.478,10,10,10h44.096c0.548,0,1.018,0.314,1.239,0.776
	C317.368,227.997,310.373,259.696,307.386,267.79z"/>
<g>
</g>
<g>
</g>
<g>
</g>
<g>
</g>
<g>
</g>
<g>
</g>
<g>
</g>
<g>
</g>
<g>
</g>
<g>
</g>
<g>
</g>
<g>
</g>
<g>
</g>
<g>
</g>
<g>
</g>
</svg>
