<?xml version="1.0" encoding="iso-8859-1"?>
<!-- Generator: Adobe Illustrator 21.0.0, SVG Export Plug-In . SVG Version: 6.00 Build 0)  -->
<svg version="1.1" id="Capa_1" xmlns="http://www.w3.org/2000/svg" xmlns:xlink="http://www.w3.org/1999/xlink" x="0px" y="0px"
	 viewBox="0 0 512 512" style="enable-background:new 0 0 512 512;" xml:space="preserve">
<path style="fill:#FFCD50;" d="M323.122,331.391c17.071-17.135,27.623-40.769,27.623-66.867c0-52.326-42.419-94.745-94.745-94.745
	s-94.745,42.419-94.745,94.745c0,26.099,10.553,49.732,27.623,66.867H323.122z"/>
<path d="M248.856,235.461l-3.984,2.473c-1.236,0.825-2.473,1.1-3.435,1.1c-3.984,0-6.732-4.259-6.732-8.519
	c0-2.885,1.237-5.633,3.984-7.281l18.136-10.991c1.099-0.688,2.473-0.962,3.984-0.962c4.396,0,9.48,2.61,9.48,6.732v87.38
	c0,4.396-5.358,6.595-10.716,6.595c-5.358,0-10.716-2.198-10.716-6.595v-69.932H248.856z"/>
<path style="fill:#FFCD50;" d="M462.089,263.798c-0.768-0.444-7.79-4.422-17.637-7.319c-14.188-4.174-27.461-4.023-38.39,0.432
	c-1.461,0.596-2.869,1.26-4.223,1.983c0.129,2.638,0.194,5.287,0.194,7.946c0,19.371-3.439,38.214-10.028,55.831
	c0.853,0.28,1.732,0.555,2.635,0.821c6.855,2.017,13.495,3.024,19.763,3.024c6.702,0,12.98-1.153,18.628-3.456
	c25.14-10.25,34.281-40.662,35.241-44.096l2.789-9.981L462.089,263.798z"/>
<polyline style="fill:#404C6B;" points="444.952,331.391 444.952,390.409 502,390.409 482,336.428 502,282.448 471.167,282.448 "/>
<path style="fill:#FFCD50;" d="M373.479,175.828l6.459-8.618c0.564-0.684,5.648-6.953,10.132-16.186
	c6.46-13.3,8.505-26.418,5.917-37.934c-5.956-26.487-34.439-40.528-37.669-42.042l-9.382-4.399l-6.597,7.993
	c-0.564,0.684-5.648,6.953-10.131,16.185c-6.461,13.3-8.506,26.418-5.918,37.934v0.001c5.956,26.486,34.439,40.528,37.667,42.042
	L373.479,175.828z"/>
<path style="fill:#FAD574;" d="M402.647,240.066c14.372-3.477,25.794-10.244,33.032-19.567s10.962-22.067,10.768-36.852
	c-0.134-10.263-2.071-18.097-2.291-18.956l-2.575-10.039l-10.363-0.006h-0.01c-0.935,0-8.983,0.073-18.924,2.478
	c-14.372,3.477-25.795,10.243-33.031,19.566"/>
<path style="fill:#FFCD50;" d="M49.911,263.798c0.768-0.444,7.79-4.422,17.637-7.319c14.188-4.174,27.461-4.023,38.39,0.432
	c1.461,0.596,2.869,1.26,4.223,1.983c-0.129,2.638-0.194,5.287-0.194,7.946c0,19.371,3.439,38.214,10.028,55.831
	c-0.853,0.28-1.732,0.555-2.635,0.821c-6.855,2.017-13.495,3.024-19.763,3.024c-6.702,0-12.98-1.153-18.628-3.456
	c-25.14-10.25-34.281-40.662-35.241-44.096l-2.789-9.981L49.911,263.798z"/>
<polyline style="fill:#5A6B96;" points="40.834,282.448 10,282.448 30,336.428 10,390.409 67.048,390.409 67.048,331.391 "/>
<path style="fill:#FAD574;" d="M65.553,183.648c0.134-10.263,2.071-18.097,2.291-18.956l2.575-10.039l10.363-0.006h0.01
	c0.935,0,8.983,0.073,18.924,2.478c14.372,3.477,25.795,10.243,33.031,19.566c0.938,1.208,1.816,2.473,2.635,3.793
	c-11.837,18.243-19.745,38.661-23.287,60.199c-0.894-0.186-1.809-0.391-2.741-0.617c-14.372-3.477-25.794-10.244-33.032-19.567
	C69.083,211.176,65.359,198.432,65.553,183.648z"/>
<path d="M112.094,250.683c-0.681,0-1.365-0.069-2.042-0.211c-0.992-0.207-2.008-0.435-3.042-0.684
	c-16.604-4.018-29.945-12.024-38.587-23.156c-8.642-11.133-13.092-26.041-12.869-43.115l0,0c0.147-11.193,2.195-19.716,2.604-21.311
	l2.575-10.038c1.134-4.421,5.117-7.513,9.681-7.516l10.363-0.006c1.665,0,10.438,0.133,21.292,2.759
	c16.6,4.017,29.94,12.023,38.58,23.155c1.142,1.47,2.23,3.037,3.233,4.653c2.041,3.291,1.998,7.465-0.11,10.714
	c-11.143,17.172-18.48,36.141-21.809,56.378c-0.442,2.69-1.964,5.083-4.212,6.624C116.071,250.081,114.097,250.683,112.094,250.683z
	 M75.552,183.779c-0.163,12.495,2.834,23.073,8.668,30.589c4.605,5.931,11.497,10.623,20.168,13.782
	c3.868-16.643,10.206-32.445,18.921-47.168c-5.901-6.579-14.813-11.443-25.945-14.137c-8.981-2.173-16.267-2.198-16.573-2.198
	l-2.612,0.002l-0.648,2.527C77.455,167.472,75.673,174.517,75.552,183.779L75.552,183.779z"/>
<path style="fill:#FFCD50;" d="M138.521,175.828l-6.459-8.618c-0.564-0.684-5.648-6.953-10.132-16.186
	c-6.46-13.3-8.505-26.418-5.917-37.934c5.956-26.487,34.439-40.528,37.669-42.042l9.382-4.399l6.597,7.993
	c0.564,0.684,5.648,6.953,10.131,16.185c6.461,13.3,8.506,26.418,5.918,37.934v0.001c-5.956,26.486-34.439,40.528-37.667,42.042
	L138.521,175.828z"/>
<path id="SVGCleanerId_0" style="fill:#8897BD;" d="M67.048,331.391h377.903v85.048c0,15.968-12.945,28.913-28.913,28.913H95.961
	c-15.968,0-28.913-12.945-28.913-28.913V331.391z"/>
<path d="M416.039,455.352H95.961c-21.457,0-38.913-17.456-38.913-38.912v-85.049c0-5.522,4.477-10,10-10h377.903
	c5.523,0,10,4.478,10,10v85.049C454.952,437.896,437.496,455.352,416.039,455.352z M77.048,341.391v75.049
	c0,10.428,8.484,18.912,18.913,18.912h320.078c10.428,0,18.913-8.484,18.913-18.912v-75.049H77.048z"/>
<g>
	<path id="SVGCleanerId_0_1_" style="fill:#8897BD;" d="M67.048,331.391h377.903v85.048c0,15.968-12.945,28.913-28.913,28.913
		H95.961c-15.968,0-28.913-12.945-28.913-28.913V331.391z"/>
</g>
<path d="M492.664,336.428l18.713-50.506c1.137-3.069,0.701-6.5-1.169-9.187s-4.935-4.288-8.208-4.288h-21.523l0.216-0.772
	c1.229-4.396-0.675-9.065-4.626-11.349l-8.978-5.19c-1.429-0.824-9.098-5.098-19.813-8.251c-8.566-2.52-16.905-3.648-24.779-3.393
	c8.596-4.289,15.737-9.977,21.081-16.861c8.642-11.132,13.092-26.04,12.869-43.114c-0.147-11.193-2.195-19.716-2.604-21.31
	l-2.575-10.039c-1.134-4.421-5.117-7.513-9.681-7.516l-10.378-0.006c-1.649,0-10.423,0.133-21.275,2.759
	c-2.906,0.703-5.712,1.529-8.411,2.472c5.478-13.504,6.942-26.876,4.221-38.982c-6.855-30.483-37.171-46.084-43.18-48.901
	l-9.382-4.399c-4.134-1.938-9.054-0.832-11.958,2.688l-6.603,8c-1.05,1.274-6.537,8.143-11.408,18.174
	c-7.46,15.357-9.77,30.744-6.679,44.497c6.772,30.118,36.457,45.713,42.954,48.797l7.15,3.772
	c16.623,24.558,25.396,53.312,25.396,83.316c0,18.92-3.445,37.248-10.245,54.551h-37.783c10.897-16.791,16.741-36.385,16.741-56.867
	c0-57.757-46.988-104.745-104.745-104.745s-104.745,46.988-104.745,104.745c0,20.483,5.844,40.076,16.741,56.867h-37.783
	c-6.8-17.304-10.245-35.632-10.245-54.551c0-30.005,8.773-58.759,25.396-83.316l7.15-3.772c6.497-3.084,36.182-18.679,42.954-48.799
	c3.09-13.752,0.781-29.138-6.679-44.495c-4.872-10.031-10.358-16.899-11.414-18.181l-6.597-7.993
	c-2.906-3.521-7.827-4.627-11.958-2.688l-9.383,4.399c-6.008,2.817-36.324,18.418-43.179,48.902
	c-2.721,12.105-1.257,25.477,4.221,38.981c-2.699-0.943-5.504-1.769-8.411-2.472c-10.853-2.626-19.627-2.759-21.292-2.759
	l-10.363,0.006c-4.563,0.003-8.547,3.095-9.681,7.516l-2.575,10.038c-0.409,1.595-2.457,10.117-2.604,21.311
	c-0.224,17.074,4.227,31.982,12.869,43.115c5.344,6.883,12.485,12.571,21.081,16.86c-7.874-0.256-16.213,0.873-24.779,3.394
	c-10.715,3.152-18.384,7.426-19.817,8.254l-8.973,5.187c-3.952,2.283-5.855,6.953-4.626,11.349l0.216,0.772H10
	c-3.273,0-6.338,1.602-8.208,4.288s-2.306,6.117-1.169,9.187l18.713,50.506L0.623,386.934c-1.137,3.069-0.701,6.5,1.169,9.187
	s4.935,4.288,8.208,4.288h47.048v16.031c0,21.456,17.456,38.912,38.913,38.912h320.078c21.457,0,38.913-17.456,38.913-38.912
	v-16.031H502c3.273,0,6.338-1.602,8.208-4.288c1.87-2.687,2.306-6.117,1.169-9.187L492.664,336.428z M441.629,266.072
	c8.869,2.61,15.195,6.233,15.455,6.383l2.259,1.306l-0.702,2.513c-0.329,1.178-8.299,28.93-29.385,37.527
	c-6.904,2.813-15.27,3.429-24.334,1.851c4.724-15.715,7.11-32.063,7.11-48.811c0-0.492-0.002-0.983-0.007-1.474
	C420.439,262.597,430.615,262.832,441.629,266.072z M336.046,126.568c-2.087-9.285-0.304-20.133,5.156-31.372
	c4.032-8.303,8.659-13.959,8.849-14.188l1.661-2.012l2.36,1.106c1.106,0.52,27.164,12.969,32.159,35.182
	c2.086,9.283,0.304,20.132-5.156,31.372c-4.034,8.305-8.66,13.96-8.855,14.196c-0.097,0.118-0.191,0.238-0.283,0.36l-1.34,1.787
	l-1.973-1.04c-0.138-0.073-0.278-0.143-0.419-0.209C367.098,161.231,341.04,148.775,336.046,126.568z M388.691,180.982
	c5.9-6.577,14.811-11.443,25.945-14.137c8.98-2.173,16.266-2.198,16.576-2.198l2.608,0.002l0.648,2.528
	c0.076,0.295,1.857,7.34,1.979,16.602c0.163,12.496-2.834,23.073-8.668,30.588c-4.605,5.931-11.495,10.623-20.165,13.782
	C403.755,211.574,397.4,195.703,388.691,180.982z M171.255,264.524c0-46.729,38.017-84.745,84.745-84.745
	s84.745,38.017,84.745,84.745c0,21.218-7.751,41.257-21.91,56.867h-125.67C179.006,305.781,171.255,285.742,171.255,264.524z
	 M125.77,115.285c4.995-22.214,31.052-34.663,32.158-35.183l2.361-1.106L161.943,81c0.195,0.236,4.822,5.893,8.854,14.195
	c5.459,11.239,7.242,22.088,5.156,31.372c-4.994,22.207-31.052,34.663-32.159,35.183c-0.142,0.066-0.281,0.136-0.419,0.209
	l-1.973,1.04l-1.34-1.787c-0.092-0.122-0.186-0.242-0.283-0.36c-0.195-0.236-4.821-5.892-8.855-14.196
	C125.466,135.415,123.683,124.567,125.77,115.285z M84.22,214.368c-5.834-7.516-8.832-18.093-8.668-30.589
	c0.122-9.262,1.903-16.307,1.979-16.603l0.648-2.527l2.612-0.002c0.306,0,7.591,0.025,16.573,2.198
	c11.133,2.694,20.044,7.56,25.944,14.137c-8.709,14.721-15.063,30.592-18.924,47.167C95.715,224.989,88.825,220.298,84.22,214.368z
	 M54.911,272.458c0.265-0.153,6.591-3.776,15.459-6.386c11.016-3.241,21.191-3.473,29.604-0.706
	c-0.004,0.491-0.007,0.982-0.007,1.473c0,16.748,2.386,33.096,7.111,48.811c-9.064,1.578-17.431,0.963-24.334-1.851
	c-21.086-8.598-29.056-36.35-29.385-37.527l-0.702-2.513L54.911,272.458z M24.369,380.409l15.008-40.506
	c0.831-2.242,0.831-4.707,0-6.949l-15.008-40.506h13.602c3.94,9.168,11.025,21.831,22.693,31.247
	c-2.209,1.834-3.616,4.601-3.616,7.697v49.018L24.369,380.409L24.369,380.409z M434.952,416.44c0,10.428-8.484,18.912-18.913,18.912
	H95.961c-10.428,0-18.913-8.484-18.913-18.912v-75.049h357.903L434.952,416.44L434.952,416.44z M472.623,339.903l15.008,40.506
	h-32.679v-49.018c0-3.095-1.407-5.862-3.616-7.697c11.668-9.416,18.753-22.078,22.693-31.247h13.602l-15.008,40.506
	C471.793,335.196,471.793,337.661,472.623,339.903z"/>
<path d="M389.85,398.371c-0.65,0-1.31-0.07-1.95-0.2c-0.64-0.12-1.27-0.311-1.88-0.561c-0.6-0.25-1.18-0.56-1.72-0.92
	c-0.55-0.37-1.06-0.79-1.52-1.25s-0.88-0.97-1.24-1.52c-0.36-0.54-0.67-1.12-0.92-1.73c-0.25-0.6-0.45-1.229-0.57-1.87
	c-0.13-0.64-0.2-1.3-0.2-1.949c0-0.65,0.07-1.311,0.2-1.95c0.12-0.641,0.32-1.271,0.57-1.87c0.25-0.61,0.56-1.19,0.92-1.73
	c0.36-0.55,0.78-1.06,1.24-1.52s0.97-0.88,1.52-1.24c0.54-0.359,1.12-0.67,1.72-0.92c0.61-0.25,1.24-0.45,1.88-0.57
	c1.29-0.26,2.61-0.26,3.9,0c0.64,0.12,1.27,0.32,1.87,0.57c0.61,0.25,1.19,0.561,1.73,0.92c0.55,0.36,1.06,0.78,1.52,1.24
	s0.88,0.97,1.24,1.52c0.36,0.54,0.67,1.12,0.92,1.73c0.25,0.6,0.45,1.229,0.58,1.87c0.13,0.64,0.19,1.3,0.19,1.95
	c0,2.63-1.07,5.21-2.93,7.069c-0.46,0.46-0.97,0.88-1.52,1.25c-0.54,0.36-1.12,0.67-1.73,0.92c-0.6,0.25-1.23,0.44-1.87,0.561
	C391.16,398.3,390.5,398.371,389.85,398.371z"/>
<path d="M352.85,398.372h-230.7c-5.523,0-10-4.478-10-10s4.477-10,10-10h230.7c5.523,0,10,4.478,10,10
	S358.373,398.372,352.85,398.372z"/>
<g>
</g>
<g>
</g>
<g>
</g>
<g>
</g>
<g>
</g>
<g>
</g>
<g>
</g>
<g>
</g>
<g>
</g>
<g>
</g>
<g>
</g>
<g>
</g>
<g>
</g>
<g>
</g>
<g>
</g>
</svg>
