<?xml version="1.0" encoding="iso-8859-1"?>
<!-- Generator: Adobe Illustrator 21.0.0, SVG Export Plug-In . SVG Version: 6.00 Build 0)  -->
<svg version="1.1" id="Capa_1" xmlns="http://www.w3.org/2000/svg" xmlns:xlink="http://www.w3.org/1999/xlink" x="0px" y="0px"
	 viewBox="0 0 512.001 512.001" style="enable-background:new 0 0 512.001 512.001;" xml:space="preserve">
<circle style="fill:#5A6B96;" cx="255.998" cy="258.42" r="127.93"/>
<path d="M255.999,396.352c-76.055,0-137.93-61.875-137.93-137.931c0-76.055,61.875-137.93,137.93-137.93
	s137.93,61.875,137.93,137.93C393.929,334.477,332.054,396.352,255.999,396.352z M255.999,140.492
	c-65.027,0-117.93,52.903-117.93,117.93s52.903,117.931,117.93,117.931s117.93-52.903,117.93-117.931
	C373.929,193.395,321.026,140.492,255.999,140.492z"/>
<path d="M255.999,178.931c-2.63,0-5.21-1.07-7.07-2.93c-0.46-0.46-0.88-0.97-1.24-1.521c-0.36-0.54-0.67-1.12-0.92-1.729
	c-0.25-0.601-0.45-1.23-0.57-1.87c-0.13-0.64-0.2-1.3-0.2-1.95c0-2.63,1.07-5.21,2.93-7.07c0.46-0.46,0.97-0.88,1.52-1.25
	c0.54-0.359,1.12-0.67,1.73-0.92c0.6-0.25,1.23-0.439,1.87-0.569c1.29-0.261,2.62-0.261,3.9,0c0.64,0.13,1.27,0.319,1.87,0.569
	c0.61,0.25,1.19,0.561,1.73,0.92c0.55,0.37,1.06,0.79,1.52,1.25s0.88,0.971,1.24,1.521c0.36,0.54,0.67,1.12,0.92,1.72
	c0.25,0.61,0.45,1.24,0.57,1.88c0.13,0.641,0.2,1.301,0.2,1.95c0,0.65-0.07,1.311-0.2,1.95c-0.12,0.64-0.32,1.27-0.57,1.87
	c-0.25,0.609-0.56,1.189-0.92,1.729c-0.36,0.551-0.78,1.061-1.24,1.521s-0.97,0.88-1.52,1.24c-0.54,0.359-1.12,0.67-1.73,0.92
	c-0.6,0.25-1.23,0.449-1.87,0.569C257.309,178.86,256.649,178.931,255.999,178.931z"/>
<path d="M255.999,357.915c-54.86,0-99.492-44.632-99.492-99.492c0-20.308,6.105-39.856,17.656-56.531
	c11.273-16.274,26.918-28.72,45.243-35.99c5.133-2.04,10.946,0.474,12.983,5.607s-0.474,10.946-5.607,12.982
	c-30.541,12.117-50.275,41.138-50.275,73.932c0,43.832,35.66,79.492,79.492,79.492s79.492-35.66,79.492-79.492
	c0-5.522,4.477-10,10-10s10,4.478,10,10C355.491,313.283,310.859,357.915,255.999,357.915z"/>
<polygon style="fill:#FBDF97;" points="255.999,213.527 272.495,240.458 303.204,247.824 282.689,271.834 285.173,303.317 
	255.999,291.226 226.824,303.317 229.308,271.834 208.794,247.824 239.503,240.458 "/>
<path d="M285.172,313.317c-1.294,0-2.595-0.251-3.828-0.762l-25.346-10.504l-25.346,10.504c-3.215,1.333-6.89,0.898-9.707-1.148
	c-2.815-2.045-4.365-5.407-4.091-8.876l2.158-27.353l-17.823-20.858c-2.261-2.646-2.983-6.276-1.908-9.586
	c1.076-3.31,3.794-5.822,7.178-6.635l26.68-6.399l14.331-23.396c1.817-2.967,5.047-4.776,8.527-4.776s6.71,1.81,8.527,4.776
	l14.331,23.396l26.68,6.399c3.384,0.813,6.103,3.325,7.178,6.635s0.353,6.94-1.908,9.586l-17.823,20.858l2.158,27.353
	c0.273,3.469-1.276,6.831-4.091,8.876C289.316,312.669,287.252,313.317,285.172,313.317z M255.999,281.227
	c1.301,0,2.603,0.254,3.829,0.762l14.093,5.841l-1.2-15.209c-0.208-2.645,0.643-5.265,2.367-7.282l9.909-11.598l-14.834-3.558
	c-2.581-0.619-4.809-2.238-6.195-4.501L256,232.673l-7.968,13.009c-1.386,2.263-3.614,3.882-6.195,4.501l-14.834,3.558l9.909,11.598
	c1.724,2.018,2.575,4.638,2.367,7.282l-1.2,15.209l14.093-5.841C253.396,281.48,254.698,281.227,255.999,281.227z"/>
<path style="fill:#FBDF97;" d="M366.976,389.074c11.012,11.559,23.506,18.585,36.131,20.317c2.259,0.311,4.494,0.454,6.696,0.454
	c26.093,0,47.521-20.18,50.057-22.665l7.996-7.828l-5.591-9.692c-0.478-0.83-4.897-8.34-12.54-16.364
	c-11.012-11.559-23.506-18.584-36.131-20.317"/>
<g>
	<path style="fill:#FFCD50;" d="M492.312,250.934c-0.829-0.479-8.411-4.774-19.042-7.902c-15.318-4.506-29.649-4.344-41.448,0.467
		c-1.578,0.643-3.097,1.36-4.56,2.141c0.139,2.848,0.209,5.708,0.209,8.579c0,20.915-3.713,41.258-10.827,60.279
		c0.921,0.303,1.87,0.599,2.845,0.886c7.401,2.178,14.57,3.265,21.337,3.265c7.236,0,14.014-1.245,20.112-3.731
		c27.142-11.067,37.012-43.901,38.048-47.608l3.012-10.776L492.312,250.934z"/>
	<path style="fill:#FFCD50;" d="M353.072,401.363c-1.303-1.011-2.669-1.959-4.093-2.842c-19.693,12.785-41.736,21.329-64.988,25.16
		c0.201,0.965,0.423,1.952,0.667,2.958c3.757,15.516,11.066,27.846,21.133,35.658c9.815,7.616,23.136,11.625,38.588,11.625
		c0.398,0,0.801-0.003,1.202-0.009c11.081-0.147,19.539-2.241,20.466-2.479l10.838-2.783l0.003-11.189
		c0-0.958-0.072-9.671-2.682-20.441C370.449,421.506,363.14,409.175,353.072,401.363z"/>
	<path style="fill:#FFCD50;" d="M158.926,401.363c1.304-1.011,2.669-1.959,4.093-2.842c19.693,12.785,41.737,21.329,64.988,25.16
		c-0.201,0.965-0.423,1.952-0.666,2.958c-3.757,15.516-11.066,27.846-21.133,35.658c-9.815,7.616-23.136,11.625-38.588,11.625
		c-0.398,0-0.801-0.003-1.202-0.009c-11.081-0.147-19.539-2.241-20.466-2.479l-10.838-2.783l-0.003-11.189
		c0-0.958,0.072-9.671,2.682-20.441C141.549,421.506,148.858,409.175,158.926,401.363z"/>
</g>
<path style="fill:#FBDF97;" d="M49.733,369.66c0.478-0.83,4.897-8.34,12.54-16.364c11.012-11.559,23.506-18.584,36.131-20.317
	c1.658-0.228,3.302-0.366,4.93-0.424c8.074,15.723,18.642,30.261,31.501,43.119c3.934,3.934,8.025,7.652,12.259,11.152
	c-0.662,0.741-1.353,1.492-2.072,2.248c-11.012,11.559-23.507,18.585-36.131,20.317c-2.259,0.311-4.494,0.454-6.696,0.454
	c-26.093,0-47.521-20.18-50.057-22.665l-7.996-7.828L49.733,369.66z"/>
<path style="fill:#FFCD50;" d="M19.686,250.934c0.829-0.479,8.411-4.774,19.042-7.902c15.318-4.506,29.649-4.344,41.448,0.467
	c1.578,0.643,3.097,1.36,4.56,2.141c-0.139,2.848-0.209,5.708-0.209,8.579c0,20.915,3.713,41.258,10.827,60.279
	c-0.921,0.303-1.87,0.599-2.845,0.886c-7.401,2.178-14.57,3.265-21.337,3.265c-7.236,0-14.014-1.245-20.112-3.731
	c-27.142-11.067-37.012-43.901-38.048-47.608L10,256.534L19.686,250.934z"/>
<path style="fill:#FBDF97;" d="M36.574,164.4c0.145-11.081,2.236-19.539,2.474-20.466l2.78-10.839l11.189-0.007h0.011
	c1.009,0,9.699,0.079,20.431,2.676c15.517,3.754,27.849,11.059,35.663,21.125c1.012,1.304,1.961,2.67,2.845,4.095
	c-12.78,19.696-21.318,41.741-25.143,64.994c-0.965-0.201-1.953-0.422-2.959-0.666c-15.517-3.754-27.849-11.06-35.664-21.126
	C40.386,194.121,36.365,180.362,36.574,164.4z"/>
<path style="fill:#FFCD50;" d="M396.643,155.956l6.974-9.304c0.609-0.738,6.098-7.507,10.939-17.475
	c6.975-14.36,9.183-28.523,6.388-40.956c-6.43-28.597-37.183-43.756-40.669-45.392l-10.13-4.75l-7.123,8.63
	c-0.609,0.739-6.098,7.507-10.939,17.474c-6.976,14.36-9.183,28.522-6.389,40.956v0.001c6.43,28.596,37.183,43.756,40.668,45.391
	L396.643,155.956z"/>
<path style="fill:#FBDF97;" d="M428.134,225.313c15.517-3.754,27.849-11.06,35.664-21.126c7.814-10.066,11.835-23.825,11.626-39.787
	c-0.145-11.081-2.236-19.539-2.474-20.466l-2.78-10.839l-11.189-0.007h-0.01c-1.009,0-9.699,0.079-20.431,2.676
	c-15.517,3.754-27.849,11.059-35.663,21.125"/>
<path style="fill:#FFCD50;" d="M115.355,155.956l-6.974-9.304c-0.609-0.738-6.098-7.507-10.939-17.475
	c-6.975-14.36-9.183-28.523-6.388-40.956c6.43-28.597,37.183-43.756,40.669-45.392l10.13-4.75l7.123,8.63
	c0.609,0.739,6.098,7.507,10.938,17.474c6.975,14.36,9.183,28.522,6.389,40.956v0.001c-6.43,28.596-37.183,43.756-40.668,45.391
	L115.355,155.956z"/>
<path d="M507.003,247.875l-9.685-5.597c-1.525-0.882-9.714-5.452-21.226-8.84c-10.697-3.146-21.059-4.268-30.676-3.371
	c10.879-4.734,19.816-11.423,26.28-19.749c9.218-11.874,13.965-27.798,13.727-46.051c-0.157-11.996-2.349-21.114-2.787-22.819
	l-2.78-10.839c-1.134-4.421-5.117-7.514-9.681-7.516l-11.205-0.006c-1.765,0-11.158,0.143-22.783,2.956
	c-3.725,0.901-7.296,1.991-10.699,3.258c6.419-14.994,8.224-29.871,5.211-43.276c-7.474-33.235-42.239-50.403-46.181-52.253
	l-10.13-4.749c-4.131-1.936-9.052-0.831-11.957,2.689l-7.125,8.633c-1.123,1.361-6.988,8.697-12.218,19.468
	c-7.975,16.416-10.448,32.848-7.15,47.519c7.235,32.182,39.039,48.866,45.955,52.146l7.912,4.175
	c18.108,26.682,27.667,57.942,27.667,90.564c0,43.209-16.827,83.832-47.381,114.385c-24.23,24.23-54.751,39.895-88.265,45.299
	c-5.453,0.879-9.16,6.012-8.281,11.464c0.223,1.384,0.721,2.656,1.428,3.769c4.307,17.674,12.841,31.871,24.687,41.063
	c11.571,8.979,27.034,13.725,44.718,13.725c0.447,0,0.899-0.003,1.335-0.01c11.959-0.159,21.101-2.352,22.82-2.792l10.838-2.783
	c4.42-1.135,7.512-5.119,7.513-9.683l0.003-11.192c0-1.765-0.143-11.156-2.962-22.794c-2.624-10.837-6.836-20.37-12.424-28.25
	c9.541,7.053,19.802,11.447,30.24,12.879c2.637,0.363,5.349,0.548,8.062,0.548c29.508,0,52.705-21.259,57.053-25.519l7.997-7.828
	c3.262-3.192,3.947-8.189,1.666-12.143l-5.588-9.686c-0.877-1.524-5.675-9.567-13.965-18.271
	c-7.691-8.074-16.106-14.225-24.884-18.256c2.959,0.336,5.879,0.506,8.747,0.506c8.573,0,16.61-1.505,23.888-4.472
	c31.555-12.865,42.733-49.987,43.903-54.177l3.012-10.776C512.858,254.829,510.954,250.159,507.003,247.875z M355.451,102.947
	c-2.292-10.202-0.347-22.096,5.627-34.395c4.403-9.065,9.446-15.223,9.656-15.478l2.187-2.649l3.106,1.457
	c1.209,0.567,29.683,14.175,35.16,38.532c2.293,10.201,0.347,22.094-5.627,34.394c-4.403,9.066-9.446,15.224-9.659,15.481
	c-0.098,0.119-0.194,0.24-0.287,0.364l-1.855,2.475l-2.731-1.441c-0.138-0.072-0.277-0.142-0.418-0.208
	C389.402,140.912,360.926,127.297,355.451,102.947z M412.085,161.43c6.475-7.447,16.383-12.94,28.807-15.945
	c9.783-2.368,17.745-2.396,18.084-2.396l3.434,0.002l0.854,3.328c0.083,0.322,2.028,8.017,2.161,18.111
	c0.179,13.674-3.116,25.267-9.526,33.523c-5.214,6.716-13.074,11.981-22.976,15.443C428.752,195.179,421.752,177.65,412.085,161.43z
	 M366.887,460.894l-3.32,0.853c-0.324,0.083-8.054,2.033-18.133,2.167c-13.632,0.179-25.27-3.121-33.514-9.518
	c-6.718-5.213-11.985-13.073-15.449-22.976c18.449-4.201,35.961-11.225,52.076-20.835c7.442,6.476,12.934,16.378,15.94,28.791
	c2.373,9.795,2.4,17.752,2.4,18.083L366.887,460.894z M442.483,360.193c6.976,7.324,10.95,14.17,11.12,14.464l1.716,2.975
	l-2.457,2.405c-0.825,0.809-20.479,19.808-43.059,19.808c-1.802,0-3.595-0.121-5.336-0.361c-8.44-1.158-16.949-5.347-24.914-12.216
	c1.582-1.476,3.143-2.983,4.681-4.521c11.925-11.925,21.989-25.215,30.046-39.518C423.963,345.113,433.672,350.944,442.483,360.193z
	 M489.356,264.619c-0.359,1.286-9.066,31.61-32.192,41.039c-7.819,3.188-17.324,3.815-27.6,1.885
	c5.208-17.058,7.907-34.984,7.907-53.325c0-0.721-0.005-1.441-0.013-2.161c9.343-3.236,20.697-3.048,32.989,0.568
	c9.688,2.85,16.57,6.799,16.86,6.967l2.973,1.718L489.356,264.619z"/>
<path d="M230.438,413.945c-33.62-5.364-64.233-21.043-88.532-45.342c-30.554-30.553-47.38-71.176-47.38-114.385
	c0-32.622,9.558-63.881,27.667-90.564l7.912-4.175c6.916-3.28,38.719-19.965,45.956-52.148c3.296-14.67,0.824-31.101-7.151-47.516
	c-5.231-10.771-11.096-18.107-12.221-19.472l-7.123-8.63c-2.905-3.521-7.825-4.625-11.957-2.689l-10.132,4.75
	c-3.939,1.849-38.705,19.017-46.179,52.253c-3.014,13.404-1.208,28.281,5.211,43.275c-3.403-1.268-6.973-2.357-10.698-3.258
	c-11.626-2.813-21.019-2.956-22.8-2.956l-11.188,0.006c-4.564,0.002-8.547,3.095-9.681,7.516l-2.779,10.838
	c-0.438,1.706-2.63,10.824-2.787,22.82c-0.238,18.253,4.508,34.177,13.727,46.05c6.464,8.326,15.401,15.015,26.28,19.75
	c-9.618-0.897-19.979,0.225-30.676,3.371c-11.511,3.388-19.7,7.958-21.223,8.838l-9.687,5.599c-3.952,2.284-5.855,6.954-4.627,11.35
	L3.379,270c1.171,4.19,12.349,41.313,43.904,54.178c7.278,2.967,15.315,4.472,23.888,4.472c2.868,0,5.787-0.17,8.747-0.506
	c-8.779,4.031-17.193,10.182-24.885,18.257c-8.289,8.702-13.087,16.745-13.96,18.263l-5.592,9.692
	c-2.281,3.953-1.596,8.95,1.666,12.143l7.994,7.826c4.351,4.262,27.547,25.521,57.055,25.521c2.713,0,5.425-0.185,8.055-0.547
	c10.442-1.433,20.704-5.826,30.244-12.878c-5.587,7.879-9.798,17.412-12.422,28.248c-2.82,11.639-2.963,21.03-2.963,22.798
	l0.003,11.189c0.001,4.563,3.092,8.548,7.513,9.683l10.846,2.785c1.711,0.438,10.854,2.631,22.8,2.79
	c0.449,0.007,0.901,0.01,1.348,0.01c17.684,0,33.147-4.746,44.718-13.725c11.689-9.07,20.153-23.012,24.514-40.36
	c0.953-1.263,1.62-2.771,1.886-4.442C239.608,419.942,235.892,414.815,230.438,413.945z M100.81,90.416
	c5.477-24.358,33.951-37.966,35.158-38.532l3.109-1.458l2.184,2.646c0.212,0.258,5.255,6.415,9.659,15.481
	c5.974,12.298,7.919,24.191,5.627,34.394c-5.475,24.35-33.951,37.965-35.16,38.532c-0.141,0.066-0.28,0.136-0.418,0.208
	l-2.731,1.441l-1.855-2.475c-0.093-0.124-0.188-0.245-0.287-0.364c-0.212-0.258-5.255-6.415-9.659-15.481
	C100.463,112.509,98.517,100.616,100.81,90.416z M56.099,198.054c-6.411-8.257-9.705-19.85-9.526-33.523
	c0.133-10.095,2.079-17.789,2.162-18.112l0.854-3.327l3.439-0.002c0.334,0,8.295,0.027,18.08,2.396
	c12.423,3.005,22.331,8.499,28.806,15.945c-9.666,16.221-16.667,33.749-20.837,52.067C69.173,210.035,61.313,204.769,56.099,198.054
	z M54.834,305.658c-23.125-9.429-31.833-39.753-32.192-41.04l-0.924-3.308l2.975-1.72c0.288-0.166,7.17-4.115,16.857-6.965
	c12.292-3.614,23.646-3.803,32.99-0.568c-0.008,0.72-0.013,1.44-0.013,2.161c0,18.341,2.699,36.267,7.907,53.325
	C72.158,309.473,62.654,308.846,54.834,305.658z M107.525,399.484c-1.734,0.239-3.528,0.36-5.33,0.36
	c-22.58,0-42.234-18.999-43.062-19.81l-2.455-2.403l1.72-2.981c0.166-0.287,4.14-7.133,11.115-14.456
	c8.812-9.25,18.521-15.081,28.205-16.967c8.057,14.303,18.121,27.594,30.046,39.518c1.538,1.538,3.099,3.045,4.681,4.521
	C124.48,394.136,115.971,398.326,107.525,399.484z M200.077,454.396c-8.031,6.231-19.254,9.525-32.458,9.525
	c-0.35,0-0.704-0.003-1.069-0.008c-10.066-0.134-17.796-2.084-18.112-2.165l-3.328-0.854l-0.001-3.433
	c0-0.334,0.027-8.291,2.401-18.087c3.006-12.411,8.497-22.313,15.938-28.789c16.114,9.611,33.626,16.634,52.076,20.835
	C212.062,441.324,206.795,449.184,200.077,454.396z"/>
<g>
</g>
<g>
</g>
<g>
</g>
<g>
</g>
<g>
</g>
<g>
</g>
<g>
</g>
<g>
</g>
<g>
</g>
<g>
</g>
<g>
</g>
<g>
</g>
<g>
</g>
<g>
</g>
<g>
</g>
</svg>
