<?xml version="1.0" encoding="iso-8859-1"?>
<!-- Generator: Adobe Illustrator 21.0.0, SVG Export Plug-In . SVG Version: 6.00 Build 0)  -->
<svg version="1.1" id="Capa_1" xmlns="http://www.w3.org/2000/svg" xmlns:xlink="http://www.w3.org/1999/xlink" x="0px" y="0px"
	 viewBox="0 0 512 512" style="enable-background:new 0 0 512 512;" xml:space="preserve">
<rect x="92" y="336.82" style="fill:#404C6B;" width="328" height="165.18"/>
<rect x="153.86" y="380.34" style="fill:#FBDF97;" width="204.28" height="78.15"/>
<path d="M320.109,429.41c-0.649,0-1.31-0.06-1.96-0.19c-0.63-0.13-1.26-0.32-1.869-0.57c-0.601-0.25-1.181-0.56-1.721-0.92
	c-0.55-0.37-1.06-0.79-1.52-1.25s-0.88-0.97-1.25-1.52c-0.36-0.54-0.67-1.12-0.92-1.72c-0.25-0.61-0.44-1.24-0.57-1.87
	c-0.13-0.65-0.19-1.31-0.19-1.96s0.061-1.31,0.19-1.95c0.13-0.64,0.32-1.27,0.57-1.87c0.25-0.61,0.56-1.19,0.92-1.73
	c0.37-0.55,0.79-1.06,1.25-1.52s0.97-0.88,1.52-1.24c0.54-0.36,1.12-0.67,1.721-0.92c0.609-0.25,1.239-0.44,1.869-0.57
	c1.29-0.26,2.62-0.26,3.91,0c0.641,0.13,1.271,0.32,1.87,0.57c0.61,0.25,1.19,0.56,1.73,0.92c0.55,0.36,1.06,0.78,1.52,1.24
	s0.88,0.97,1.24,1.52c0.36,0.54,0.67,1.12,0.92,1.73c0.25,0.6,0.45,1.23,0.57,1.87c0.13,0.64,0.199,1.3,0.199,1.95
	c0,0.65-0.069,1.31-0.199,1.96c-0.12,0.63-0.32,1.26-0.57,1.87c-0.25,0.6-0.56,1.18-0.92,1.72c-0.36,0.55-0.78,1.06-1.24,1.52
	s-0.97,0.88-1.52,1.25c-0.54,0.36-1.12,0.67-1.73,0.92c-0.6,0.25-1.229,0.44-1.87,0.57C321.42,429.35,320.76,429.41,320.109,429.41z
	"/>
<rect x="126.25" y="289.56" style="fill:#8897BD;" width="259.49" height="47.26"/>
<path style="fill:#FAD574;" d="M365.573,119.573C365.573,59.057,316.515,10,256,10S146.427,59.057,146.427,119.573
	c0,47.701,30.481,88.282,72.171,103.33v26.287h74.803v-26.287C335.092,207.855,365.573,167.273,365.573,119.573z"/>
<rect x="218.6" y="249.19" style="fill:#404C6B;" width="74.8" height="40.37"/>
<path d="M420,326.824h-24.253v-37.26c0-5.523-4.478-10-10-10h-82.346v-49.866c43.447-18.71,72.171-62.096,72.171-110.125
	C375.572,53.64,321.933,0,256,0S136.427,53.64,136.427,119.573c0,48.029,28.724,91.415,72.171,110.125v49.866h-82.346
	c-5.523,0-10,4.477-10,10v37.26H92c-5.523,0-10,4.477-10,10V502c0,5.523,4.477,10,10,10h328c5.522,0,10-4.477,10-10V336.824
	C430,331.301,425.522,326.824,420,326.824z M156.427,119.573C156.427,64.668,201.095,20,256,20
	c54.904,0,99.572,44.668,99.572,99.573c0,42.023-26.349,79.769-65.566,93.924c-3.963,1.43-6.604,5.192-6.604,9.406v16.287h-54.803
	v-16.287c0-4.214-2.642-7.976-6.605-9.406C182.776,199.341,156.427,161.596,156.427,119.573z M228.599,259.189h54.803v20.375
	h-54.803V259.189z M136.253,299.564h239.494v27.26H136.253V299.564z M410,492H102V346.824h308V492z"/>
<path d="M358.14,370.335H153.86c-5.523,0-10,4.477-10,10v78.153c0,5.523,4.477,10,10,10h204.28c5.522,0,10-4.477,10-10v-78.153
	C368.14,374.813,363.662,370.335,358.14,370.335z M348.14,448.489H163.86v-19.077h119.25c5.522,0,10-4.477,10-10s-4.478-10-10-10
	H163.86v-19.077h184.28V448.489z"/>
<path d="M256,184.421c-2.652,0-5.196-1.054-7.071-2.929l-44.733-44.733c-3.905-3.905-3.905-10.237,0-14.143
	c3.905-3.904,10.237-3.904,14.143,0L256,160.279l37.661-37.662c3.906-3.905,10.236-3.906,14.143,0
	c3.905,3.905,3.905,10.237,0,14.142l-44.732,44.733C261.195,183.367,258.652,184.421,256,184.421z"/>
<g>
</g>
<g>
</g>
<g>
</g>
<g>
</g>
<g>
</g>
<g>
</g>
<g>
</g>
<g>
</g>
<g>
</g>
<g>
</g>
<g>
</g>
<g>
</g>
<g>
</g>
<g>
</g>
<g>
</g>
</svg>
